Coordinates
version=1
nRows=13
nColumns=63
inDegrees=yes

Units are S.I. units (second, meters, Newtons, ...)
If the header above contains a line with 'inDegrees', this indicates whether rotational values are in degrees (yes) or radians (no).

endheader
time	pelvis_tilt	pelvis_list	pelvis_rotation	pelvis_tx	pelvis_ty	pelvis_tz	hip_flexion_r	hip_adduction_r	hip_rotation_r	knee_angle_r	knee_angle_r_beta	ankle_angle_r	subtalar_angle_r	mtp_angle_r	hip_flexion_l	hip_adduction_l	hip_rotation_l	knee_angle_l	knee_angle_l_beta	ankle_angle_l	subtalar_angle_l	mtp_angle_l	L5_S1_Flex_Ext	L5_S1_Lat_Bending	L5_S1_axial_rotation	L4_L5_Flex_Ext	L4_L5_Lat_Bending	L4_L5_axial_rotation	L3_L4_Flex_Ext	L3_L4_Lat_Bending	L3_L4_axial_rotation	L2_L3_Flex_Ext	L2_L3_Lat_Bending	L2_L3_axial_rotation	L1_L2_Flex_Ext	L1_L2_Lat_Bending	L1_L2_axial_rotation	L1_T12_Flex_Ext	L1_T12_Lat_Bending	L1_T12_axial_rotation	Abs_r3	Abs_r2	Abs_r1	Abs_t1	Abs_t2	neck_flexion	neck_bending	neck_rotation	arm_flex_r	arm_add_r	arm_rot_r	elbow_flex_r	pro_sup_r	wrist_flex_r	wrist_dev_r	arm_flex_l	arm_add_l	arm_rot_l	elbow_flex_l	pro_sup_l	wrist_flex_l	wrist_dev_l
0.000000	8.055973	-5.216702	96.604251	0.205160	0.963562	0.632781	3.494593	3.245850	-7.374627	5.359086	0.093534	22.428637	12.157251	0.000000	5.440515	-4.198221	0.377150	8.695948	0.151773	21.045713	2.611484	0.000000	-0.076639	0.500309	-1.119827	-0.142327	0.665412	-1.189816	-0.125911	1.216452	-1.189816	-0.087591	1.216452	-0.979849	-0.071167	1.020231	-0.909860	-0.043792	0.774979	-0.839870	-0.547427	5.659601	-6.228143	0.000000	0.000000	8.114987	1.509406	3.292456	7.686648	-17.148848	52.472232	67.923080	88.618087	5.892784	13.152175	9.316412	-12.007468	47.970899	62.254713	81.179489	18.621593	21.185470
0.023256	7.925017	-5.159909	96.154424	0.205348	0.963236	0.631302	3.329542	3.088531	-7.583540	5.509104	0.096152	22.430363	12.873294	0.000000	5.050765	-4.098212	0.082321	8.424175	0.147030	21.375720	2.716314	0.000000	-0.067747	0.488972	-1.007263	-0.125814	0.650333	-1.070217	-0.111302	1.188887	-1.070217	-0.077429	1.188887	-0.881355	-0.062910	0.997112	-0.818402	-0.038711	0.757418	-0.755448	-0.483913	5.531352	-5.602097	0.000000	0.000000	8.149778	1.081371	2.948636	7.064578	-17.177932	51.252159	68.451576	88.321805	5.206273	13.787258	9.652614	-12.169487	49.716358	62.826048	76.192500	13.261047	20.149314
0.046512	7.823452	-5.085412	95.724343	0.205580	0.962929	0.629810	3.133366	2.979351	-7.506584	5.579888	0.097387	22.443807	13.245761	0.000000	4.652100	-4.019610	-0.169694	8.155269	0.142336	21.641648	2.720419	0.000000	-0.061130	0.480322	-0.904861	-0.113524	0.638828	-0.961415	-0.100430	1.167855	-0.961415	-0.069865	1.167855	-0.791753	-0.056765	0.979473	-0.735199	-0.034930	0.744019	-0.678646	-0.436645	5.433499	-5.032565	0.000000	0.000000	8.163323	0.730282	2.669181	6.530538	-17.232925	50.280677	68.923062	88.123984	4.619546	14.289566	9.888823	-12.287882	51.114353	63.332572	72.063514	8.770792	19.296728
0.069767	7.749247	-4.995715	95.314242	0.205852	0.962645	0.628317	2.911262	2.914257	-7.180372	5.580737	0.097402	22.466861	13.315278	0.000000	4.248181	-3.961279	-0.381980	7.890567	0.137716	21.847903	2.634426	0.000000	-0.056571	0.474196	-0.812089	-0.105058	0.630681	-0.862844	-0.092940	1.152961	-0.862844	-0.064655	1.152961	-0.710578	-0.052532	0.966981	-0.659822	-0.032325	0.734530	-0.609066	-0.404080	5.364204	-4.516594	0.000000	0.000000	8.153348	0.447902	2.449070	6.077908	-17.307672	49.534054	69.335560	88.011672	4.130224	14.671682	10.035371	-12.366574	52.198795	63.772093	68.729281	5.086521	18.613301
0.093023	7.700373	-4.893322	94.924355	0.206161	0.962386	0.626836	2.668423	2.889194	-6.641516	5.520946	0.096359	22.497420	13.122474	0.000000	3.842671	-3.922085	-0.557619	7.631405	0.133193	21.998893	2.468961	0.000000	-0.053854	0.470432	-0.728416	-0.100012	0.625675	-0.773942	-0.088477	1.143809	-0.773942	-0.061550	1.143809	-0.637364	-0.050009	0.959306	-0.591838	-0.030772	0.728700	-0.546312	-0.384674	5.321625	-4.051230	0.000000	0.000000	8.117574	0.225990	2.283282	5.700071	-17.396018	48.988557	69.687090	87.971916	3.735927	14.946186	10.102592	-12.409484	53.003592	64.142420	66.126548	2.143932	18.084619
0.116279	7.674798	-4.780740	94.554914	0.206500	0.962156	0.625382	2.410046	2.900111	-5.926628	5.409814	0.094419	22.533376	12.707974	0.000000	3.439230	-3.900892	-0.699695	7.379122	0.128790	22.099025	2.234652	0.000000	-0.052764	0.468868	-0.653311	-0.097987	0.623594	-0.694143	-0.086685	1.140004	-0.694143	-0.060303	1.140004	-0.571647	-0.048996	0.956115	-0.530815	-0.030149	0.726276	-0.489983	-0.376885	5.303923	-3.633521	0.000000	0.000000	8.053728	0.056306	2.166795	5.390406	-17.491805	48.620451	69.975670	87.991764	3.434278	15.125661	10.100820	-12.420533	53.562654	64.441362	64.192066	-0.121280	17.696272
0.139535	7.670494	-4.660472	94.206153	0.206868	0.961957	0.623966	2.141325	2.942952	-5.072319	5.256636	0.091746	22.572623	12.112406	0.000000	3.041521	-3.896567	-0.811292	7.135053	0.124530	22.152707	1.942125	0.000000	-0.053083	0.469339	-0.586244	-0.098581	0.624221	-0.622884	-0.087210	1.141151	-0.622884	-0.060669	1.141151	-0.512963	-0.049293	0.957076	-0.476323	-0.030332	0.727006	-0.439683	-0.379168	5.309258	-3.260513	0.000000	0.000000	7.959533	-0.069390	2.094587	5.142297	-17.588879	48.406004	70.199323	88.058264	3.222896	15.222689	10.040389	-12.403641	53.909891	64.666727	62.862585	-1.773419	17.433848
0.162791	7.685430	-4.535024	93.878305	0.207258	0.961792	0.622603	1.867455	3.013664	-4.115202	5.070711	0.088501	22.613054	11.376396	0.000000	2.653206	-3.907974	-0.895494	6.900536	0.120437	22.164344	1.602008	0.000000	-0.054597	0.471685	-0.526683	-0.101393	0.627341	-0.559601	-0.089698	1.146854	-0.559601	-0.062399	1.146854	-0.460848	-0.050699	0.961859	-0.427930	-0.031197	0.730640	-0.395012	-0.389983	5.335791	-2.929253	0.000000	0.000000	7.832713	-0.159337	2.061637	4.949123	-17.681085	48.321483	70.356066	88.158463	3.099403	15.249852	9.931632	-12.362730	54.079212	64.816325	62.074852	-2.876791	17.282934
0.186047	7.717575	-4.406902	93.571603	0.207667	0.961665	0.621305	1.593631	3.108195	-3.091889	4.861335	0.084846	22.652562	10.540572	0.000000	2.277947	-3.933979	-0.955383	6.676909	0.116534	22.138345	1.224928	0.000000	-0.057089	0.475741	-0.474098	-0.106021	0.632736	-0.503729	-0.093792	1.156718	-0.503729	-0.065247	1.156718	-0.414835	-0.053013	0.970132	-0.385204	-0.032621	0.736923	-0.355573	-0.407784	5.381682	-2.636788	0.000000	0.000000	7.670991	-0.221775	2.062925	4.804267	-17.762266	48.343155	70.443921	88.279409	3.061420	15.219731	9.784883	-12.301720	54.104526	64.887963	61.765619	-3.495699	17.229119
0.209302	7.764901	-4.278609	93.286281	0.208091	0.961578	0.620086	1.325049	3.222490	-2.038992	4.637804	0.080945	22.689041	9.645561	0.000000	1.919406	-3.973446	-0.994044	6.465507	0.112844	22.079117	0.821511	0.000000	-0.060344	0.481347	-0.427956	-0.112064	0.640191	-0.454704	-0.099139	1.170346	-0.454704	-0.068967	1.170346	-0.374462	-0.056035	0.981562	-0.347715	-0.034480	0.745606	-0.320967	-0.431029	5.445089	-2.380165	0.000000	0.000000	7.472093	-0.264944	2.093427	4.701110	-17.826267	48.447287	70.460908	88.408150	3.106568	15.144909	9.610476	-12.224534	54.019742	64.879450	61.871633	-3.694447	17.257991
0.232558	7.825376	-4.152650	93.022571	0.208526	0.961534	0.618959	1.066903	3.352495	-0.993123	4.409417	0.076959	22.720383	8.731989	0.000000	1.581245	-4.025242	-1.014561	6.267668	0.109391	21.991066	0.402385	0.000000	-0.064144	0.488338	-0.387729	-0.119122	0.649489	-0.411962	-0.105383	1.187345	-0.411962	-0.073310	1.187345	-0.339262	-0.059564	0.995818	-0.315029	-0.036652	0.756435	-0.290796	-0.458176	5.524175	-2.156430	0.000000	0.000000	7.233743	-0.297084	2.148123	4.633033	-17.866933	48.610144	70.405047	88.531732	3.232468	15.037967	9.418745	-12.135091	53.858771	64.788595	62.329645	-3.537340	17.355138
0.255814	7.889154	-4.025569	92.788541	0.209026	0.961524	0.618051	0.831119	3.488745	-0.099414	4.222922	0.073704	22.734004	7.946898	0.000000	1.275241	-4.085878	-1.027357	6.099459	0.106456	21.877010	-0.007526	0.000000	-0.069719	0.494695	-0.347598	-0.129475	0.657945	-0.369323	-0.114541	1.202802	-0.369323	-0.079682	1.202802	-0.304148	-0.064741	1.008783	-0.282423	-0.039837	0.766283	-0.260698	-0.497994	5.596093	-1.933235	0.000000	0.000000	6.940766	-0.354868	2.177624	4.585685	-17.842752	48.732465	70.293462	88.681080	3.414253	15.070232	9.284043	-12.047349	53.749135	64.682120	63.031357	-3.261969	18.071161
0.279070	7.965904	-3.914532	92.567746	0.209517	0.961592	0.617263	0.628829	3.632646	0.679674	4.053557	0.070748	22.744929	7.280316	0.000000	1.002604	-4.159365	-1.026045	5.942081	0.103709	21.749608	-0.414861	0.000000	-0.073546	0.502823	-0.311255	-0.136581	0.668755	-0.330709	-0.120828	1.222564	-0.330709	-0.084055	1.222564	-0.272348	-0.068294	1.025357	-0.252895	-0.042024	0.778873	-0.233441	-0.525328	5.688035	-1.731108	0.000000	0.000000	6.570714	-0.436084	2.203351	4.547077	-17.790192	48.831644	70.121758	88.863564	3.712921	14.932873	9.122135	-11.945941	53.464710	64.472184	64.375313	-2.421756	18.834621
